<svg version="1" xmlns="http://www.w3.org/2000/svg" width="933.333" height="933.333" viewBox="0 0 700.000000 700.000000"><path d="M416.5 103.2c-4.3 2.2-6.7 4.9-10.4 11.2-1.3 2.3-6.5 11.3-11.6 20.1s-17.4 29.9-27.3 47c-9.8 17-18.8 32.6-20 34.5-10.1 17.5-46.3 80.2-47.8 82.9-1.1 1.8-2.3 4.1-2.9 5-.5.9-4.3 7.3-8.4 14.3-4 7-7.7 12.6-8.1 12.3-.4-.3-2.8-4-5.2-8.2-2.4-4.3-11.3-19.7-19.8-34.3-8.4-14.6-16.1-27.9-17-29.5-15.8-27.5-18.8-31.6-24.9-33.6-10.9-3.7-19.9.7-26.9 13.1-1.1 1.9-10.2 17.7-20.2 35s-23.5 40.5-29.8 51.5c-6.3 11-12.3 21.3-13.3 23-1 1.6-3.3 5.7-5.2 9-3.8 6.7-4 7.1-16.2 28-4.8 8.2-9.7 16.6-10.8 18.5-2.1 3.7-10.5 18.3-12.2 21.2-.5.9-2.8 4.7-4.9 8.5-2.2 3.7-11.1 19.2-19.9 34.3-8.8 15.1-16.9 29.1-18 31-1 1.9-4.5 8-7.7 13.5s-6.7 11.6-7.8 13.5c-1.1 1.9-4.7 8.3-8.2 14.2-5.5 9.5-6.2 11.2-6.2 16.2-.1 7.3 3.5 13.5 9.9 17.3l4.6 2.7h91.6c86.6 0 91.8-.1 95.1-1.8 5.8-3 8.8-6.5 15.1-17.6 3.3-5.8 6.4-11.2 6.9-12 1.7-2.8 9.6-16.5 18-31 18.4-31.9 32.2-55.5 32.9-56.2.4-.4 2.3 2 4.3 5.5 2 3.4 8.2 14.1 13.8 23.7 11.8 20.3 9.6 16.4 29.6 51.3 16.5 28.6 20.8 34.4 27.9 36.7 5.5 1.9 319.7 2.2 326.2.4 6-1.7 9.8-4.8 12.3-9.9 3.8-7.9 3.1-15.8-2-23.5-1.6-2.3-36.9-63.3-41.8-72.2-1.2-2-3.2-5.4-4.5-7.5-1.3-2.1-3.7-6.3-5.4-9.3-1.7-3-20.9-36.3-42.8-74-43.3-74.7-57.2-98.6-60.2-104-1.1-1.9-5-8.6-8.7-14.8-3.6-6.2-7.7-13.2-9-15.5-4.6-8.2-6.4-11.3-12-20.6-3.1-5.1-5.6-9.6-5.6-9.8 0-.3-2.9-5.3-6.3-11.2-8-13.4-11.7-19.6-14.2-24.3-2-3.6-20.8-36-22.6-38.8-.5-.8-4.5-7.8-9-15.5-8.8-15.1-10.8-17.9-15.4-20.3-4.7-2.4-13.3-2.4-18 0zm25 130.8c8.1 14 15.7 27.3 17 29.5 1.2 2.2 4.6 8 7.5 13 5.2 8.9 11.2 19.2 14.9 25.8 1 1.8 8.9 15.4 17.5 30.1 8.6 14.7 15.6 27 15.6 27.3 0 .4.6 1.4 1.4 2.2.7.9 2.7 4.1 4.3 7.1 1.7 3 13.5 23.5 26.3 45.5s24.1 41.6 25.2 43.5c7.2 12.5 14.9 25.9 20.3 35 7.6 12.9 11.5 20 11.2 20.1-.1.1-49.1.2-108.9.3-107.8.1-108.7.1-109.7-1.9-1.4-2.6-5.4-9.6-18.2-31.7-5.9-10.1-11.7-20.1-12.9-22.3-1.2-2.2-3.1-5.2-4.1-6.7-1.1-1.4-1.9-2.9-1.9-3.2 0-.4-1.1-2.5-2.6-4.7-1.4-2.2-3.3-5.5-4.3-7.2-1-1.8-4.1-7.3-7-12.2-6.8-11.8-6.2-10.7-12-20.7-2.8-4.8-5.1-8.9-5.1-9.2 0-.2 8.7-15.4 19.3-33.8 10.7-18.3 20.2-34.7 21.1-36.3.9-1.7 2.8-4.8 4.1-7 1.3-2.2 2.7-4.7 3.2-5.5.4-.8 4.5-8 9.1-16 11.7-20 28.4-49 41-70.8 8.4-14.6 10.8-18 11.7-17 .7.7 7.9 12.8 16 26.8zM225.2 360.7c10.1 17.5 18.2 32.5 18.1 33.4-.1.9-2.3 5.2-4.9 9.5-2.6 4.3-5.5 9.4-6.5 11.2-6.4 11.2-53.5 92.3-55.4 95.2l-2.2 3.5h-37.7c-33.2 0-37.6-.2-37.1-1.5.4-.8 4.8-8.7 9.9-17.5 5.2-8.8 16.6-28.4 25.4-43.5 8.7-15.1 18.5-32 21.7-37.5 3.2-5.5 7.2-12.5 9-15.5 1.7-3 10.6-18.3 19.7-34s17.3-30 18.2-31.8c.9-1.7 2.1-3.2 2.5-3.2.5 0 9.2 14.3 19.3 31.7z"/></svg>