<svg width="1500" height="1500" xmlns="http://www.w3.org/2000/svg" class="icon">
 <defs>
  <style type="text/css"/>
 </defs>
 <g>
  <title>background</title>
  <rect fill="none" id="canvas_background" height="1502" width="1502" y="-1" x="-1"/>
 </g>
 <g>
  <title>Layer 1</title>
  <path stroke-width="0" id="svg_1" fill="#007AFF" d="m210.972239,1100.57728l163.06613,0l149.24696,-257.03644l-81.53306,-140.95546l-230.78003,397.9919zm614.95276,0l467.08772,0l-382.79082,-660.55601l-233.54386,403.51957l149.24697,257.03644l-0.00001,0zm623.24427,132.66397l-671.61134,0c-16.58299,0 -33.16599,-9.67342 -41.45749,-23.49258l-5.52766,-9.67341l-129.90014,-223.87045l-135.4278,233.54386c-8.29149,15.20108 -24.87449,23.49258 -41.45749,23.49258l-368.97166,0c-33.16599,0 -53.89473,-35.92983 -37.31174,-63.56815l386.93658,-668.84751c16.58299,-29.02024 58.04048,-29.02024 74.62348,0l121.60863,210.05129l273.61944,-472.61539c16.58299,-29.02024 58.04048,-29.02024 74.62348,0l538.94737,930.02969c15.20108,29.02024 -5.52767,64.95007 -38.69366,64.95007z"/>
 </g>
</svg>